<svg width="36" height="36" viewBox="0 0 36 36" fill="none" xmlns="http://www.w3.org/2000/svg">
<path d="M17.5516 6.90849C17.735 6.53687 18.265 6.53687 18.4484 6.90849L21.4104 12.9102C21.4832 13.0577 21.624 13.16 21.7868 13.1837L28.4101 14.1461C28.8202 14.2057 28.984 14.7097 28.6872 14.999L23.8946 19.6706C23.7767 19.7855 23.723 19.951 23.7508 20.1132L24.8822 26.7097C24.9522 27.1181 24.5235 27.4296 24.1567 27.2368L18.2327 24.1223C18.087 24.0457 17.913 24.0457 17.7673 24.1223L11.8433 27.2368C11.4765 27.4296 11.0478 27.1181 11.1178 26.7097L12.2492 20.1132C12.277 19.951 12.2233 19.7855 12.1054 19.6706L7.3128 14.999C7.01604 14.7097 7.17979 14.2057 7.5899 14.1461L14.2132 13.1837C14.376 13.16 14.5168 13.0577 14.5896 12.9102L17.5516 6.90849Z" fill="#FDDD09" stroke="#FDDD09"/>
</svg>
