<svg width="36" height="36" viewBox="0 0 36 36" fill="none" xmlns="http://www.w3.org/2000/svg">
<path d="M12.7519 3C5.72145 3 0.00195312 8.7195 0.00195312 15.75C0.00195312 22.7805 5.72145 28.4999 12.7519 28.4999C19.7824 28.4999 25.5019 22.7805 25.5019 15.75C25.5019 8.7195 19.7825 3 12.7519 3ZM12.7519 27C6.54791 27 1.50193 21.954 1.50193 15.75C1.50193 9.54595 6.54791 4.49998 12.7519 4.49998C18.956 4.49998 24.0019 9.54595 24.0019 15.75C24.0019 21.954 18.956 27 12.7519 27Z" fill="#7F818A"/>
<path fill-rule="evenodd" clip-rule="evenodd" d="M21.2202 24.2197C21.5131 23.9268 21.9879 23.9268 22.2808 24.2197L29.7808 31.7197C30.0737 32.0126 30.0737 32.4874 29.7808 32.7803C29.4879 33.0732 29.0131 33.0732 28.7202 32.7803L21.2202 25.2803C20.9273 24.9874 20.9273 24.5126 21.2202 24.2197Z" fill="#7F818A"/>
</svg>
