<svg width="36" height="36" viewBox="0 0 36 36" fill="none" xmlns="http://www.w3.org/2000/svg">
<path d="M27.9295 29.243L26.2114 26.381C25.4194 25.06 25.0004 23.548 25.0004 22.007V19.5C25.0004 15.641 21.8594 12.5 18.0004 12.5C14.1415 12.5 11.0005 15.641 11.0005 19.5V22.007C11.0005 23.548 10.5814 25.06 9.78944 26.381L8.07142 29.243C7.97842 29.397 7.97641 29.59 8.06444 29.746C8.15345 29.903 8.32042 30 8.50042 30H27.5004C27.6804 30 27.8474 29.903 27.9364 29.746C28.0244 29.59 28.0225 29.397 27.9295 29.243ZM9.38345 29L10.6465 26.895C11.5324 25.419 12.0004 23.729 12.0004 22.007V19.5C12.0004 16.191 14.6914 13.5 18.0004 13.5C21.3094 13.5 24.0004 16.191 24.0004 19.5V22.007C24.0004 23.729 24.4684 25.419 25.3534 26.895L26.6174 29H9.38345Z" fill="#191919"/>
<path d="M18 9C16.897 9 16 9.897 16 11V13C16 13.276 16.224 13.5 16.5 13.5C16.776 13.5 17 13.276 17 13V11C17 10.448 17.448 10 18 10C18.552 10 19 10.448 19 11V13C19 13.276 19.224 13.5 19.5 13.5C19.776 13.5 20 13.276 20 13V11C20 9.897 19.103 9 18 9Z" fill="#191919"/>
<path d="M20.164 29.247C20.023 29.009 19.718 28.931 19.479 29.068C19.24 29.208 19.16 29.515 19.3 29.753C19.43 29.974 19.501 30.239 19.501 30.5C19.501 31.327 18.828 32 18.001 32C17.174 32 16.501 31.327 16.501 30.5C16.501 30.239 16.572 29.974 16.702 29.753C16.841 29.514 16.761 29.208 16.523 29.068C16.282 28.931 15.978 29.009 15.838 29.247C15.617 29.625 15.5 30.058 15.5 30.5C15.5 31.879 16.621 33 18 33C19.379 33 20.5 31.879 20.502 30.5C20.502 30.058 20.385 29.625 20.164 29.247Z" fill="#191919"/>
</svg>
