<svg width="36" height="36" viewBox="0 0 36 36" fill="none" xmlns="http://www.w3.org/2000/svg">
<path d="M14.4375 24.4248C12.45 24.177 11.2906 22.8553 11.2077 20.8727C11.1249 18.8074 11.1249 16.7422 11.2077 14.7596C11.2906 12.6118 12.6984 11.2901 14.8516 11.2075C16.8392 11.1249 18.8268 11.1249 20.8143 11.2075C22.9675 11.2901 24.3754 12.6944 24.4582 14.8422C24.541 16.8248 24.541 18.8074 24.4582 20.7901C24.3754 22.9379 22.9675 24.3422 20.8143 24.4248C19.8206 24.5074 15.597 24.59 14.4375 24.4248ZM17.833 12.364C16.8392 12.364 15.9282 12.364 15.0173 12.364C13.4438 12.4466 12.45 13.2727 12.45 14.8422C12.3672 16.8248 12.3672 18.7248 12.45 20.7074C12.5328 22.277 13.4438 23.1857 15.0173 23.1857C16.922 23.2683 18.8268 23.2683 20.8143 23.1857C22.3878 23.1857 23.2988 22.277 23.3816 20.7074C23.4644 18.7248 23.4644 16.7422 23.3816 14.7596C23.2988 13.1901 22.3878 12.364 20.8143 12.2814C19.7377 12.364 18.8268 12.364 17.833 12.364Z" fill="#191919" stroke="#191919" stroke-width="0.25" stroke-miterlimit="10"/>
<path d="M17.8316 14.3467C19.7364 14.3467 21.3099 15.9162 21.2271 17.8162C21.2271 19.7162 19.6536 21.2858 17.7488 21.2858C15.9269 21.2858 14.3534 19.7162 14.3534 17.8162C14.3534 15.9162 15.9269 14.3467 17.8316 14.3467ZM17.8316 20.0467C19.0739 20.0467 20.0677 19.0554 20.0677 17.8162C20.0677 16.5771 19.0739 15.5858 17.8316 15.5858C16.5894 15.5858 15.5956 16.5771 15.5956 17.8162C15.5956 19.0554 16.5894 20.0467 17.8316 20.0467Z" fill="#191919" stroke="#191919" stroke-width="0.25" stroke-miterlimit="10"/>
<path d="M21.3933 15.0902C20.9793 15.0902 20.5652 14.7597 20.5652 14.2641C20.5652 13.851 20.8964 13.438 21.3933 13.438C21.8074 13.438 22.2215 13.7684 22.2215 14.2641C22.2215 14.6771 21.8902 15.0902 21.3933 15.0902Z" fill="#191919" stroke="#191919" stroke-width="0.25" stroke-miterlimit="10"/>
</svg>
