<svg width="36" height="36" viewBox="0 0 36 36" fill="none" xmlns="http://www.w3.org/2000/svg">
<path d="M13.216 14.2083H13.1885L13.1612 14.2114C12.7061 14.2616 12.2029 13.8443 12.2029 13.2056C12.2029 12.6894 12.6878 12.2029 13.216 12.2029C13.8141 12.2029 14.2291 12.6701 14.2291 13.2056C14.2291 13.7912 13.7637 14.2083 13.216 14.2083ZM14.0511 16.4459V24.0203H12.3809V16.4459H14.0511Z" fill="#191919" stroke="#191919"/>
<path d="M24.0199 19.7469V23.9319H22.3497V20.3657C22.3497 20.3525 22.3497 20.3392 22.3497 20.3257C22.3499 19.8662 22.3502 19.2114 22.137 18.669C22.0215 18.3749 21.835 18.0887 21.5347 17.8795C21.2335 17.6697 20.8609 17.5674 20.4256 17.5674C20.0084 17.5674 19.6437 17.6451 19.3365 17.8113C19.025 17.9799 18.8034 18.223 18.6513 18.5023C18.3623 19.0334 18.3234 19.7024 18.3234 20.2773V24.0203H16.6532V16.4459H18.3234V17.095L19.27 17.3198C19.544 16.7757 20.2647 16.1807 21.3157 16.1807C22.5267 16.1807 23.1453 16.571 23.4981 17.1217C23.883 17.7223 24.0199 18.6128 24.0199 19.7469Z" fill="#191919" stroke="#191919"/>
</svg>
