<svg width="36" height="36" viewBox="0 0 36 36" fill="none" xmlns="http://www.w3.org/2000/svg">
<path d="M26.799 14.5427L18.174 10.0427C18.0653 9.98575 17.9355 9.98575 17.8268 10.0427L9.2018 14.5427C9.07801 14.6073 9 14.7347 9 14.875C9 15.0152 9.07801 15.1428 9.20176 15.2073L17.8268 19.7073C17.8808 19.7358 17.9408 19.75 18 19.75C18.0592 19.75 18.1193 19.7358 18.1733 19.7073L26.7982 15.2073C26.922 15.1428 27 15.0153 27 14.875C27 14.7347 26.922 14.6073 26.799 14.5427ZM18 18.9527L10.1858 14.875L18 10.7972L25.8143 14.875L18 18.9527Z" fill="#191919" stroke="#191919" stroke-width="0.5"/>
<path d="M26.799 17.542L25.545 16.888C25.362 16.7942 25.1348 16.8632 25.0388 17.047C24.9428 17.2308 25.014 17.4572 25.1978 17.5532L25.8143 17.875L18 21.9527L10.1858 17.875L10.803 17.554C10.9868 17.458 11.058 17.2315 10.962 17.0477C10.866 16.8632 10.6387 16.795 10.4558 16.8887L9.20176 17.5427C9.07801 17.6072 9 17.7348 9 17.875C9 18.0152 9.07801 18.1427 9.20176 18.2073L17.8268 22.7073C17.8808 22.7358 17.9408 22.75 18 22.75C18.0592 22.75 18.1193 22.7358 18.1733 22.7073L26.7982 18.2073C26.922 18.1427 27 18.0153 27 17.875C27 17.7347 26.922 17.6072 26.799 17.542Z" fill="#191919" stroke="#191919" stroke-width="0.5"/>
<path d="M26.799 20.542L25.545 19.888C25.362 19.7942 25.1348 19.8632 25.0388 20.047C24.9428 20.2308 25.014 20.4572 25.1978 20.5532L25.8143 20.875L18 24.9528L10.1858 20.875L10.803 20.554C10.9868 20.458 11.058 20.2315 10.962 20.0477C10.866 19.864 10.6387 19.7942 10.4558 19.8887L9.20176 20.5428C9.07801 20.6072 9 20.7348 9 20.875C9 21.0152 9.07801 21.1427 9.20176 21.2073L17.8268 25.7073C17.8808 25.7358 17.9408 25.75 18 25.75C18.0592 25.75 18.1193 25.7358 18.1733 25.7073L26.7982 21.2073C26.922 21.1427 27 21.0153 27 20.875C27 20.7348 26.922 20.6072 26.799 20.542Z" fill="#191919" stroke="#191919" stroke-width="0.5"/>
</svg>
