<svg width="36" height="36" viewBox="0 0 36 36" fill="none" xmlns="http://www.w3.org/2000/svg">
<path d="M23.6667 11H12.3333C11.0467 11 10 12.0467 10 13.3333V21.3333C10 22.62 11.0467 23.6667 12.3333 23.6667H20.1953L23.4307 26.9027C23.4947 26.966 23.58 27 23.6667 27C23.7093 27 23.7527 26.9914 23.794 26.9747C23.9187 26.9233 24 26.8013 24 26.6667V23.6433C25.1294 23.4807 26 22.5067 26 21.3333V13.3333C26 12.0467 24.9533 11 23.6667 11ZM25.3333 21.3333C25.3333 22.2527 24.5853 23 23.6667 23C23.4827 23 23.3333 23.1493 23.3333 23.3333V25.862L20.5693 23.0973C20.5067 23.0353 20.422 23 20.3333 23H12.3333C11.4147 23 10.6667 22.2527 10.6667 21.3333V13.3333C10.6667 12.414 11.4147 11.6667 12.3333 11.6667H23.6667C24.5853 11.6667 25.3333 12.414 25.3333 13.3333V21.3333V21.3333Z" fill="#191919" stroke="#191919" stroke-width="0.75"/>
</svg>
