<svg width="36" height="37" viewBox="0 0 36 37" fill="none" xmlns="http://www.w3.org/2000/svg">
<path d="M26.9272 17.666C26.8685 17.2098 26.6103 16.8122 26.2189 16.5766C25.8339 16.345 25.3706 16.3012 24.941 16.4624C24.6005 16.5891 24.2178 16.4138 24.0629 16.0679C23.8805 15.6586 23.6559 15.2673 23.3945 14.905C23.1683 14.5896 23.2106 14.1772 23.4915 13.9455C23.8398 13.6591 24.0339 13.2364 24.0261 12.7849C24.0167 12.3278 23.8015 11.9052 23.4337 11.6266C22.8357 11.1735 22.183 10.7963 21.4936 10.506C21.067 10.3268 20.5912 10.3502 20.1898 10.5717C19.7953 10.7893 19.5269 11.1688 19.4526 11.6126C19.3923 11.9741 19.055 12.2128 18.666 12.176C18.2293 12.1298 17.7731 12.1298 17.334 12.176C16.9435 12.212 16.6086 11.9741 16.5483 11.6126C16.4747 11.168 16.2055 10.7885 15.8111 10.5717C15.4096 10.351 14.9338 10.3268 14.5073 10.506C13.8178 10.7963 13.1651 11.1735 12.5672 11.6266C12.1994 11.9053 11.9842 12.3271 11.9748 12.7849C11.9661 13.2364 12.161 13.6591 12.5101 13.9471C12.791 14.1779 12.8325 14.5904 12.6063 14.905C12.345 15.2681 12.1196 15.6594 11.938 16.0671C11.7814 16.4146 11.3949 16.5884 11.0513 16.4592C10.6302 16.3012 10.1669 16.3434 9.78109 16.5759C9.38978 16.8122 9.13151 17.209 9.07282 17.6645C9.02425 18.0362 9 18.4158 9 18.793C9 19.1702 9.02425 19.5497 9.07278 19.9199C9.13148 20.3762 9.38974 20.7738 9.78106 21.0093C10.1661 21.2418 10.6302 21.2856 11.059 21.1236C11.4002 20.996 11.7829 21.1721 11.9371 21.518C12.1195 21.9273 12.3441 22.3186 12.6055 22.681C12.8316 22.9963 12.7894 23.4088 12.5085 23.6405C12.1602 23.9269 11.9661 24.3495 11.9739 24.8011C11.9833 25.2581 12.1985 25.6807 12.5663 25.9593C13.1643 26.4124 13.817 26.7897 14.5064 27.08C14.6958 27.159 14.8946 27.199 15.0926 27.199C15.3407 27.199 15.5872 27.1371 15.8103 27.0135C16.2047 26.7959 16.4731 26.4164 16.5475 25.9726C16.6078 25.6111 16.9435 25.3692 17.334 25.4091C17.7707 25.4553 18.2269 25.4553 18.666 25.4091C19.0542 25.3685 19.3915 25.6111 19.4517 25.9726C19.5253 26.4171 19.7945 26.7967 20.189 27.0135C20.5904 27.2342 21.0663 27.2584 21.4928 27.0792C22.1823 26.7889 22.835 26.4117 23.4328 25.9585C23.8007 25.6799 24.0159 25.2581 24.0253 24.8003C24.0331 24.3487 23.8382 23.9261 23.49 23.6389C23.209 23.408 23.1675 22.9956 23.3937 22.681C23.6551 22.3178 23.8805 21.9265 24.0621 21.5188C24.2178 21.1721 24.5997 20.996 24.9409 21.1236L25.0779 20.7573L24.9487 21.1267C25.3713 21.2864 25.8331 21.2433 26.2189 21.0101C26.6102 20.7737 26.8685 20.3769 26.9272 19.9215C26.9757 19.5497 27 19.1702 27 18.7929C27 18.4158 26.9757 18.0362 26.9272 17.666ZM26.1516 19.8213C26.1242 20.0389 26.0006 20.2275 25.8151 20.3394C25.6367 20.4474 25.4215 20.467 25.2203 20.3926L25.2133 20.3903C24.4949 20.1219 23.6731 20.4764 23.3476 21.1995C23.1871 21.5595 22.9891 21.9039 22.7583 22.2248C22.2895 22.879 22.3904 23.7469 22.9946 24.2447C23.1566 24.3777 23.2466 24.5749 23.2427 24.7847C23.238 25.0022 23.1363 25.2033 22.961 25.3356C22.4139 25.7496 21.8192 26.094 21.1891 26.3585C20.9856 26.4438 20.7579 26.4336 20.567 26.328C20.3807 26.2254 20.2594 26.0533 20.2242 25.8436C20.095 25.0688 19.3946 24.5507 18.5846 24.6313C18.1996 24.6712 17.7997 24.6712 17.4162 24.6313C16.6062 24.5421 15.905 25.0672 15.7758 25.8436C15.7414 26.0533 15.6193 26.2255 15.433 26.328C15.2421 26.4344 15.0144 26.4446 14.8109 26.3585C14.1809 26.094 13.5853 25.7496 13.039 25.3356C12.8645 25.2034 12.762 25.0022 12.7573 24.7855C12.7534 24.5757 12.8442 24.3785 13.0062 24.2447C13.6103 23.747 13.7113 22.879 13.2417 22.2248C13.0109 21.9039 12.8128 21.5596 12.6516 21.1988C12.402 20.6408 11.8557 20.3019 11.2844 20.3019C11.1146 20.3019 10.9432 20.3317 10.7765 20.3935C10.5801 20.4679 10.3649 20.4475 10.1857 20.3395C9.9994 20.2276 9.87651 20.039 9.84914 19.8206C9.80453 19.4825 9.78263 19.1366 9.78263 18.793C9.78263 18.4495 9.80453 18.1036 9.84914 17.7639C9.87655 17.5464 10.0002 17.3578 10.1857 17.2458C10.3633 17.1386 10.5785 17.1175 10.7851 17.1949C11.5082 17.4649 12.3276 17.1104 12.6524 16.3865C12.8128 16.0265 13.0109 15.6822 13.2417 15.3613C13.7113 14.707 13.6103 13.8383 13.0054 13.3414C12.8434 13.2083 12.7534 13.0111 12.7573 12.8014C12.7619 12.5838 12.8645 12.3835 13.039 12.2504C13.5853 11.8364 14.1808 11.4921 14.8108 11.2276C15.0143 11.1415 15.2421 11.1517 15.433 11.2573C15.6193 11.3598 15.7406 11.532 15.7758 11.7417C15.9057 12.5173 16.61 13.0393 17.4153 12.9555C17.8004 12.9156 18.2003 12.9156 18.5838 12.9555C19.393 13.0385 20.095 12.5189 20.2241 11.7433C20.2586 11.5336 20.3807 11.3614 20.5669 11.2589C20.7579 11.1525 20.9856 11.1423 21.1891 11.2284C21.8191 11.4929 22.4147 11.8372 22.9609 12.2512C23.1354 12.3835 23.238 12.5846 23.2427 12.8014C23.2466 13.0111 23.1558 13.2083 22.9938 13.3422C22.3896 13.8399 22.2887 14.7078 22.7583 15.3621C22.9891 15.683 23.1871 16.0273 23.3483 16.3881C23.6723 17.112 24.4917 17.4649 25.2235 17.1926C25.4191 17.1175 25.6351 17.1386 25.8143 17.2466C26.0006 17.3585 26.1235 17.5471 26.1509 17.7655C26.1955 18.1036 26.2174 18.4495 26.2174 18.793C26.2174 19.1366 26.1955 19.4825 26.1516 19.8213Z" fill="#191919" stroke="#191919" stroke-width="0.5"/>
<path d="M18.0003 15.2712C16.0586 15.2712 14.4785 16.8513 14.4785 18.793C14.4785 20.7346 16.0586 22.3147 18.0003 22.3147C19.9419 22.3147 21.522 20.7346 21.522 18.793C21.522 16.8513 19.9419 15.2712 18.0003 15.2712ZM18.0003 21.5321C16.4898 21.5321 15.2611 20.3034 15.2611 18.793C15.2611 17.2825 16.4898 16.0538 18.0003 16.0538C19.5107 16.0538 20.7394 17.2826 20.7394 18.793C20.7394 20.3034 19.5107 21.5321 18.0003 21.5321Z" fill="#191919" stroke="#191919" stroke-width="0.5"/>
</svg>
