<svg width="36" height="37" viewBox="0 0 36 37" fill="none" xmlns="http://www.w3.org/2000/svg">
<path d="M22.5 17.293H13.5C12.4657 17.293 11.625 18.1345 11.625 19.168V25.918C11.625 26.9515 12.4657 27.793 13.5 27.793H22.5C23.5343 27.793 24.375 26.9515 24.375 25.918V19.168C24.375 18.1345 23.5343 17.293 22.5 17.293ZM23.625 25.918C23.625 26.5383 23.1203 27.043 22.5 27.043H13.5C12.8797 27.043 12.375 26.5383 12.375 25.918V19.168C12.375 18.5477 12.8797 18.043 13.5 18.043H22.5C23.1203 18.043 23.625 18.5477 23.625 19.168V25.918Z" fill="#191919" stroke="#191919" stroke-width="0.5"/>
<path d="M18 9.79297C15.312 9.79297 13.125 11.98 13.125 14.668V17.668C13.125 17.875 13.293 18.043 13.5 18.043H22.5C22.707 18.043 22.875 17.875 22.875 17.668V14.668C22.875 11.98 20.688 9.79297 18 9.79297ZM22.125 17.293H13.875V14.6679C13.875 12.3932 15.726 10.543 18 10.543C20.274 10.543 22.125 12.3932 22.125 14.6679V17.293V17.293Z" fill="#191919" stroke="#191919" stroke-width="0.5"/>
<path d="M18 22.543C17.793 22.543 17.625 22.711 17.625 22.918V25.168C17.625 25.375 17.793 25.543 18 25.543C18.207 25.543 18.375 25.375 18.375 25.168V22.918C18.375 22.7109 18.207 22.543 18 22.543Z" fill="#191919" stroke="#191919" stroke-width="0.5"/>
<path d="M18 19.543C16.9657 19.543 16.125 20.3845 16.125 21.418C16.125 22.4514 16.9657 23.293 18 23.293C19.0342 23.293 19.875 22.4515 19.875 21.418C19.875 20.3845 19.0342 19.543 18 19.543ZM18 22.543C17.3797 22.543 16.875 22.0383 16.875 21.418C16.875 20.7977 17.3797 20.293 18 20.293C18.6202 20.293 19.125 20.7977 19.125 21.418C19.125 22.0382 18.6202 22.543 18 22.543Z" fill="#191919" stroke="#191919" stroke-width="0.5"/>
</svg>
